<svg width="60" height="60" viewBox="0 0 60 60" fill="none" xmlns="http://www.w3.org/2000/svg">
<path id="Vector" d="M22.3676 0C20.5187 0 19.4716 1.59329 19.0023 3.3829V5.00011H60.0012V3.3829C60.0012 1.53282 58.4926 0 56.6437 0H22.3676ZM19.0023 7.00016V10.0002H60.0012V7.00016H19.0023ZM19.0023 12.0002V23.6274C19.0023 25.4775 20.5187 27.0005 22.3676 27.0005H56.6437C58.4926 27.0005 60.0012 25.4775 60.0012 23.6274V12.0002H19.0023ZM26.147 16.0589H31.862C33.0529 16.0589 34.0026 17.0505 34.0026 18.2445V20.8676C34.0026 22.0694 33.0529 23.059 31.862 23.059H26.147C24.956 23.059 24.0063 22.0697 24.0063 20.8676V18.2445C24.0063 17.0427 24.956 16.0589 26.147 16.0589ZM26.147 18.059C26.0718 18.059 26.0083 18.1421 26.0083 18.2446V20.8676C26.0083 20.9897 26.0718 21.0589 26.147 21.0589H31.862C31.9372 21.0589 32.0007 20.9856 32.0007 20.8676V18.2446C32.0007 18.1304 31.9372 18.059 31.862 18.059H26.147ZM20.9399 36.0027C19.0023 36.0027 15.6246 37.4766 13.3733 38.6297C13.7615 39.3406 14.0023 40.1432 14.0023 41.0067V54.4874C15.2758 54.2656 16.5677 54.0618 18.0062 54.0069C19.2425 54.0069 21.5533 55.7589 23.0552 56.8195C25.1953 58.3301 27.5005 60.0012 30.0006 60.0012C30.7531 60.0012 31.5091 59.7536 32.5046 59.382C37.9755 57.3368 49.5153 50.8084 56.2375 46.8759C57.9384 45.9352 58.4972 43.757 57.5363 42.0926C56.6143 40.4957 54.7427 40.1068 52.9229 40.7274L40.366 45.0751C40.456 45.8921 40.3097 46.7391 39.8699 47.5009C38.7706 49.4051 36.3111 50.0633 34.4069 48.9639L28.3385 45.4638C27.084 44.8234 28.1654 42.9637 29.3424 43.7372L35.403 47.2353C36.3776 47.798 37.5729 47.4795 38.1355 46.5048C38.6982 45.5303 38.3778 44.337 37.4031 43.7743C32.9404 41.1977 25.0256 36.0027 20.9399 36.0027ZM3.00592 38.0027C1.32252 38.0027 0 39.3639 0 41.0086V55.003C0 56.6412 1.32347 57.9962 2.98641 58.007H9.00604C10.8321 58.007 12.0022 56.4556 12.0022 55.0011V41.0067C12.0022 39.3261 10.6428 38.0027 9.008 38.0027H3.00592ZM5.004 52.0049C5.55632 52.0049 6.00405 52.4527 6.00405 53.005C6.00405 53.5573 5.55632 54.005 5.004 54.005C4.45173 54.005 4.004 53.5573 4.004 53.005C4.004 52.4527 4.45173 52.0049 5.004 52.0049Z" fill="white"/>
</svg>
